# xmcd CD database file
#
# Track frame offsets:
#	150
#	13568
#	25979
#	37869
#	51899
#	65741
#	78145
#	90817
#	102948
#	123427
#	151228
#	168192
#	192886
#	208758
#	231085
#	247549
#	281937
#	296399
#	310588
#	326478
#
# Disc length: 4494 seconds
#
# Revision: 0
# Processed by: cddbd v1.5.2PL0 Copyright (c) Steve Scherf et al.
# Submitted via: CDex 1.70beta2
#
DISCID=f8118c14
DTITLE=Dizzy Gillespie - Bebop Story Vol. 4 1947-48 CD 019
DYEAR=2008
DGENRE=Jazz
TTITLE0=Algo Bueno
TTITLE1=Cool breeze
TTITLE2=Cubana Be
TTITLE3=Cubana bop
TTITLE4=Manteca
TTITLE5=Good Bait
TTITLE6=Ool-Ya-Koo
TTITLE7=Minor Walk
TTITLE8=Emanon
TTITLE9=Ool-Ya-Koo
TTITLE10='Round Midnight
TTITLE11=Stay On It
TTITLE12=Good Bait
TTITLE13=One Bass Hit
TTITLE14=I Can't Get Started
TTITLE15=Manteca
TTITLE16=Guarachi Guaro
TTITLE17=Duff Capers
TTITLE18=Lover Come Back To Me
TTITLE19=I'm Be Boppin' Too
EXTD=YEAR: 2008
EXTT0=
EXTT1=
EXTT2=
EXTT3=
EXTT4=
EXTT5=
EXTT6=
EXTT7=
EXTT8=
EXTT9=
EXTT10=
EXTT11=
EXTT12=
EXTT13=
EXTT14=
EXTT15=
EXTT16=
EXTT17=
EXTT18=
EXTT19=
PLAYORDER=
